<svg width="344" height="345" viewBox="0 0 344 345">
  <g fill="none" fill-rule="evenodd">
    <path fill="#A1D049" d="M73.013 2.687A1835.86 1835.86 0 0 1 172 0c32.832 0 65.664.896 98.496 2.69 38.203 2.085 68.712 32.593 70.8 70.796A1814.729 1814.729 0 0 1 344 172.5c0 33.011-.902 66.023-2.706 99.034-2.088 38.206-32.6 68.715-70.807 70.797A1809.6 1809.6 0 0 1 172 345c-32.993 0-65.985-.889-98.978-2.667C34.474 340.256 3.8 309.257 2.128 270.69a2267.314 2267.314 0 0 1-.001-196.36C3.798 35.767 34.469 4.769 73.013 2.688z"/>
    <path fill="#1A310A" fill-rule="nonzero" d="M160.523 43.013c6.004-.194 11.04 1.743 14.914 6.005.194.387.581.58.775.968.775-.194 1.356-.194 1.937-.194l.416.004c8.73.161 16.126 5.378 21.084 14.91 1.55 3.1 2.712 6.005 3.486 8.523 4.455-1.355 7.167-2.13 7.167-2.13.387 0 .968-.194 2.13-.194V283L66 257.626s17.82-136.36 18.4-141.203c.776-6.392.97-6.585 7.749-8.716.193-.194 9.49-3.1 22.856-7.167 1.355-10.265 6.391-23.437 12.977-33.896 9.297-14.915 20.919-23.243 32.54-23.63zm56.365 30.216c3.873 3.874 14.333 13.946 14.333 13.946s17.045.388 18.013.388c.969 0 1.937.775 2.131 1.937.194 1.162 26.342 178.004 26.342 178.004l-60.82 15.109zm-38.933 47.068s-6.392-3.099-18.982-2.324c-32.54 2.13-47.261 24.793-45.712 47.261 1.744 26.73 28.473 25.761 29.442 42.032.194 3.874-2.325 9.49-9.104 9.878-10.46.775-23.437-9.104-23.437-9.104l-5.036 21.307s12.978 13.946 36.608 12.396c19.563-1.162 33.122-16.851 31.766-39.9-1.937-29.249-34.671-31.96-35.446-44.357-.194-2.324 0-11.428 14.334-12.396 9.878-.775 18.207 3.099 18.207 3.099zm-17.432-69.342c-17.82.387-33.51 28.473-37.77 47.067a9468.84 9468.84 0 0 0 20.337-6.198c2.325-11.815 7.942-24.212 15.302-32.153 2.905-2.906 6.005-5.424 9.104-6.973-1.937-1.162-4.262-1.743-6.973-1.743zm12.009 7.747c-3.293 1.55-6.199 4.068-8.33 6.199-5.423 6.004-10.071 15.108-12.396 24.211 8.33-2.518 16.852-5.23 24.6-7.554.193-6.392-.582-15.883-3.874-22.856zm8.135-.58c2.712 6.972 3.486 15.301 3.486 21.112a329.74 329.74 0 0 1 11.622-3.487c-1.937-6.004-6.198-15.882-15.108-17.626z"/>
  </g>
</svg>
